gait_60.mot
version=1
nRows=21
nColumns=19
inDegrees=yes
endheader
time	ground_force_vx	ground_force_vy	ground_force_vz	ground_force_px	ground_force_py	ground_force_pz	1_ground_force_vx	1_ground_force_vy	1_ground_force_vz	1_ground_force_px	1_ground_force_py	1_ground_force_pz	ground_torque_x	ground_torque_y	ground_torque_z	1_ground_torque_x	1_ground_torque_y	1_ground_torque_z
      2.30600000	      0.00000000	      0.00000000	      0.00000000	      0.00000000	      0.00000000	      0.00000000	    115.00221261	    490.44879333	     -2.71708859	      0.26740411	      0.00000000	     -0.16303203	      0.00000000	      0.00000000	      0.00000000	      0.00000000	      0.90640998	      0.00000000
      2.30700000	      0.00000000	      0.00000000	      0.00000000	      0.00000000	      0.00000000	      0.00000000	    114.68221425	    485.88126113	     -2.45971653	      0.26753492	      0.00000000	     -0.16307414	      0.00000000	      0.00000000	      0.00000000	      0.00000000	      0.88641964	      0.00000000
      2.30800000	      0.00000000	      0.00000000	      0.00000000	      0.00000000	      0.00000000	      0.00000000	    114.33469557	    481.25169558	     -2.20274652	      0.26766577	      0.00000000	     -0.16311626	      0.00000000	      0.00000000	      0.00000000	      0.00000000	      0.86670666	      0.00000000
      2.30900000	      0.00000000	      0.00000000	      0.00000000	      0.00000000	      0.00000000	      0.00000000	    113.95942578	    476.56082918	     -1.94638038	      0.26779666	      0.00000000	     -0.16315840	      0.00000000	      0.00000000	      0.00000000	      0.00000000	      0.84727603	      0.00000000
      2.31000000	      0.00000000	      0.00000000	      0.00000000	      0.00000000	      0.00000000	      0.00000000	    113.55619182	    471.80945814	     -1.69082356	      0.26792762	      0.00000000	     -0.16320055	      0.00000000	      0.00000000	      0.00000000	      0.00000000	      0.82813256	      0.00000000
      2.31100000	      0.00000000	      0.00000000	      0.00000000	      0.00000000	      0.00000000	      0.00000000	    113.12479924	    466.99844299	     -1.43628508	      0.26805864	      0.00000000	     -0.16324272	      0.00000000	      0.00000000	      0.00000000	      0.00000000	      0.80928077	      0.00000000
      2.31200000	      0.00000000	      0.00000000	      0.00000000	      0.00000000	      0.00000000	      0.00000000	    112.66507272	    462.12870887	     -1.18297746	      0.26818975	      0.00000000	     -0.16328491	      0.00000000	      0.00000000	      0.00000000	      0.00000000	      0.79072500	      0.00000000
      2.31300000	      0.00000000	      0.00000000	      0.00000000	      0.00000000	      0.00000000	      0.00000000	    112.17685666	    457.20124532	     -0.93111603	      0.26832096	      0.00000000	     -0.16332712	      0.00000000	      0.00000000	      0.00000000	      0.00000000	      0.77246933	      0.00000000
      2.31400000	      0.00000000	      0.00000000	      0.00000000	      0.00000000	      0.00000000	      0.00000000	    111.66001574	    452.21710700	     -0.68091806	      0.26845228	      0.00000000	     -0.16336934	      0.00000000	      0.00000000	      0.00000000	      0.00000000	      0.75451761	      0.00000000
      2.31500000	      0.00000000	      0.00000000	      0.00000000	      0.00000000	      0.00000000	      0.00000000	    111.11443559	    447.17741523	     -0.43260213	      0.26858373	      0.00000000	     -0.16341159	      0.00000000	      0.00000000	      0.00000000	      0.00000000	      0.73687336	      0.00000000
      2.31600000	      0.00000000	      0.00000000	      0.00000000	      0.00000000	      0.00000000	      0.00000000	    110.54002368	    442.08335892	     -0.18638768	      0.26871532	      0.00000000	     -0.16345387	      0.00000000	      0.00000000	      0.00000000	      0.00000000	      0.71953971	      0.00000000
      2.31700000	      0.00000000	      0.00000000	      0.00000000	      0.00000000	      0.00000000	      0.00000000	    109.93671017	    436.93619415	      0.05750543	      0.26884707	      0.00000000	     -0.16349617	      0.00000000	      0.00000000	      0.00000000	      0.00000000	      0.70251942	      0.00000000
      2.31800000	      0.00000000	      0.00000000	      0.00000000	      0.00000000	      0.00000000	      0.00000000	    109.30444828	    431.73724406	      0.29885687	      0.26897900	      0.00000000	     -0.16353849	      0.00000000	      0.00000000	      0.00000000	      0.00000000	      0.68581486	      0.00000000
      2.31900000	      0.00000000	      0.00000000	      0.00000000	      0.00000000	      0.00000000	      0.00000000	    108.64321467	    426.48789971	      0.53744557	      0.26911113	      0.00000000	     -0.16358085	      0.00000000	      0.00000000	      0.00000000	      0.00000000	      0.66942817	      0.00000000
      2.32000000	      0.00000000	      0.00000000	      0.00000000	      0.00000000	      0.00000000	      0.00000000	    107.95301009	    421.18962074	      0.77304984	      0.26924349	      0.00000000	     -0.16362325	      0.00000000	      0.00000000	      0.00000000	      0.00000000	      0.65336133	      0.00000000
      2.32100000	      0.00000000	      0.00000000	      0.00000000	      0.00000000	      0.00000000	      0.00000000	    107.23385994	    415.84393407	      1.00544805	      0.26937609	      0.00000000	     -0.16366569	      0.00000000	      0.00000000	      0.00000000	      0.00000000	      0.63761606	      0.00000000
      2.32200000	      0.00000000	      0.00000000	      0.00000000	      0.00000000	      0.00000000	      0.00000000	    106.48581450	    410.45243140	      1.23441951	      0.26950896	      0.00000000	     -0.16370818	      0.00000000	      0.00000000	      0.00000000	      0.00000000	      0.62219378	      0.00000000
      2.32300000	      0.00000000	      0.00000000	      0.00000000	      0.00000000	      0.00000000	      0.00000000	    105.70894928	    405.01676724	      1.45974532	      0.26964214	      0.00000000	     -0.16375072	      0.00000000	      0.00000000	      0.00000000	      0.00000000	      0.60709548	      0.00000000
      2.32400000	      0.00000000	      0.00000000	      0.00000000	      0.00000000	      0.00000000	      0.00000000	    104.90336553	    399.53865747	      1.68120887	      0.26977565	      0.00000000	     -0.16379333	      0.00000000	      0.00000000	      0.00000000	      0.00000000	      0.59232177	      0.00000000
      2.32500000	      0.00000000	      0.00000000	      0.00000000	      0.00000000	      0.00000000	      0.00000000	    104.06919092	    394.01987826	      1.89859596	      0.26990953	      0.00000000	     -0.16383601	      0.00000000	      0.00000000	      0.00000000	      0.00000000	      0.57787283	      0.00000000
      2.32600000	      0.00000000	      0.00000000	      0.00000000	      0.00000000	      0.00000000	      0.00000000	    103.20658053	    388.46226585	      2.11169467	      0.27004381	      0.00000000	     -0.16387877	      0.00000000	      0.00000000	      0.00000000	      0.00000000	      0.56374846	      0.00000000
